<?xml version="1.0" encoding="UTF-8" standalone="no"?>
<!-- Created with Inkscape (http://www.inkscape.org/) -->
<svg id="svg1" height="417.79" viewBox="0,0,682.51306,417.78693" width="682.51" xmlns="http://www.w3.org/2000/svg" xmlns:svg="http://www.w3.org/2000/svg">
 <g id="g1">
  <path id="path1" d="m0 0h511.887v313.34h-511.887z" fill="#fff" transform="scale(1.3333333)"/>
  <path id="path2" d="m34.574 82.18v161.234c0 10.578 8.52 19.09 19.106 19.09h136.465c10.585 0 19.105-8.512 19.105-19.09v-161.234z" fill="#99c1f1" transform="scale(1.3333333)"/>
  <path id="path3" d="m34.574 61.085v182.478c0 10.585 8.52 19.11 19.106 19.11h136.465c10.585 0 19.105-8.525 19.105-19.11v-182.478z" fill="none" stroke="#000" stroke-linecap="round" stroke-linejoin="round" stroke-width="2.127" transform="scale(1.3333333 1.3324947)"/>
  <path id="path4" d="m44.293 61.047v182.363c0 10.578 8.523 19.098 19.109 19.098h13.973c-7.27-4.215-10.059-8.52-10.059-19.098v-182.363z" fill="#0ff" fill-opacity=".133" transform="scale(1.3333333)"/>
  <path id="path5" d="m102.215 31.129c0-2.438.351-4.789 1.051-7.047.718-2.281 1.839-4.332 3.359-6.152h2.492c-1.402 1.882-2.461 3.949-3.179 6.211-.704 2.261-1.051 4.578-1.051 6.961 0 2.32.347 4.597 1.051 6.839.718 2.219 1.769 4.27 3.148 6.149h-2.461c-1.52-1.758-2.641-3.75-3.359-5.969-.7-2.242-1.051-4.57-1.051-6.992zm16.441-8.129c1.961 0 3.41.43 4.352 1.289.937.863 1.406 2.231 1.406 4.113v10.95h-1.918l-.512-2.282h-.117c-.703.879-1.441 1.532-2.222 1.95-.778.421-1.84.632-3.18.632-1.457 0-2.668-.382-3.629-1.14-.961-.782-1.441-1.992-1.441-3.633 0-1.598.632-2.828 1.89-3.688 1.262-.882 3.199-1.359 5.82-1.441l2.731-.09v-.961c0-1.34-.289-2.269-.871-2.789-.578-.519-1.399-.781-2.457-.781-.844 0-1.641.133-2.403.391-.757.242-1.468.519-2.128.839l-.809-1.98c.699-.379 1.527-.699 2.488-.957.961-.281 1.961-.422 3-.422zm3.149 8.492-2.367.09c-2 .078-3.391.398-4.172.957-.758.563-1.141 1.352-1.141 2.371 0 .899.27 1.559.813 1.981.558.418 1.269.629 2.128.629 1.34 0 2.461-.368 3.36-1.11.922-.758 1.379-1.918 1.379-3.48zm12.84-.363c0 2.422-.36 4.75-1.079 6.992-.699 2.219-1.808 4.211-3.332 5.969h-2.457c1.379-1.879 2.418-3.93 3.118-6.149.722-2.242 1.082-4.519 1.082-6.839 0-2.383-.36-4.7-1.082-6.961-.7-2.262-1.75-4.329-3.149-6.211h2.488c1.524 1.82 2.633 3.871 3.332 6.152.719 2.258 1.079 4.609 1.079 7.047z" transform="scale(1.3333333)"/>
  <path id="path6" d="m77.074 120.715h89.676v89.676h-89.676z" fill="#99c1f1" fill-rule="evenodd" stroke="#000" stroke-dasharray="2.83,2.83" stroke-linecap="round" stroke-linejoin="round" stroke-width="1.417" transform="scale(1.3333333)"/>
  <path id="path7" d="m124.586 165.555c0 1.472-1.199 2.672-2.676 2.672-1.472 0-2.672-1.2-2.672-2.672 0-1.477 1.2-2.676 2.672-2.676 1.477 0 2.676 1.199 2.676 2.676z" fill="#f2f2f2" stroke="#000" stroke-width=".222" transform="scale(1.3333333)"/>
  <path id="path8" d="m77.074 120.715h89.676v89.676h-89.676z" fill="#99c1f1" fill-rule="evenodd" stroke="#000" stroke-dasharray="2.83,2.83" stroke-linecap="round" stroke-linejoin="round" stroke-width="1.417" transform="scale(1.3333333)"/>
  <path id="path9" d="m121.984 163.676v-54.653" fill="none" stroke="#00f" stroke-linecap="round" stroke-linejoin="round" stroke-miterlimit="10" stroke-width="3.117" transform="scale(1.3333333)"/>
  <path id="path10" d="m121.984 95.805 4.231 16.922h-8.461z" fill="#00f" transform="scale(1.3333333)"/>
  <path id="path11" d="m121.984-166.855v-54.653" fill="none" stroke="#ed333b" stroke-linecap="round" stroke-linejoin="round" stroke-miterlimit="10" stroke-width="3.117" transform="scale(1.3333333 -1.3333333)"/>
  <path id="path12" d="m121.984-234.727 4.231 16.922h-8.461z" fill="#ed333b" stroke="#ed333b" stroke-linecap="square" stroke-miterlimit="10" stroke-width=".891" transform="scale(1.3333333 -1.3333333)"/>
  <path id="path13" d="m70.914 292.25c-.312 0-.465-.09-.465-.273 0-.036.028-.165.082-.383.071-.293.145-.457.219-.496.074-.036.281-.063.629-.082.496 0 1.043-.028 1.644-.082.258-.055.43-.164.524-.329.035-.089.683-2.66 1.945-7.703s1.903-7.601 1.918-7.675c0-.129-.035-.192-.109-.192-.145-.055-.629-.101-1.453-.137h-.848c-.109-.109-.164-.183-.164-.218 0-.039.016-.196.055-.469.07-.309.164-.5.273-.574h14.777c.125.074.192.172.192.301 0 .089-.121 1.113-.36 3.07-.234 1.957-.363 2.961-.382 3.015-.036.129-.219.192-.547.192h-.328c-.129-.09-.196-.211-.196-.356 0-.019.028-.238.086-.656.055-.422.082-.906.082-1.453 0-.551-.066-.996-.195-1.344-.125-.347-.301-.633-.52-.851-.218-.219-.558-.364-1.015-.438s-.922-.137-1.395-.191c-.476-.055-1.136-.067-1.976-.028h-.629c-1.5.016-2.293.043-2.387.082-.09.036-.156.11-.191.219-.02.02-.328 1.215-.93 3.59l-.879 3.539h1.508.629c.367 0 .621-.012.769-.027.145-.02.348-.047.602-.082.258-.039.476-.102.66-.196.18-.089.336-.199.465-.328.238-.218.437-.519.601-.902.165-.387.286-.734.36-1.043.07-.312.117-.477.137-.492.054-.094.226-.137.519-.137h.328c.129.09.192.18.192.274 0 .054-.282 1.25-.848 3.589-.566 2.34-.879 3.547-.934 3.618-.035.128-.218.195-.547.195h-.328c-.129-.113-.191-.223-.191-.332 0-.055.043-.254.137-.602.09-.347.136-.715.136-1.097 0-.528-.183-.86-.55-.985-.364-.129-1.176-.195-2.438-.195h-1.508l-.879 3.484c-.586 2.266-.875 3.453-.875 3.563 0 .258.813.383 2.438.383h.687c.11.109.164.175.164.191 0 .02-.019.203-.054.551-.074.238-.164.41-.274.519h-.468c-.75-.035-2.129-.054-4.141-.054-1.188 0-2.09 0-2.711 0s-.969.007-1.043.027z" transform="scale(1.3333333)"/>
  <path id="path14" d="m93.074 296.465c-.195-.039-.937-.059-2.23-.059-1.188 0-1.84.02-1.957.059h-.137v-.891h.293c.93-.039 1.523-.312 1.781-.816.012-.039.356-1.051 1.028-3.043.671-1.988 1.336-3.981 1.996-5.969s1-2.992 1.027-3.004c.039-.105.156-.156.348-.156h.195c.258.016.414.059.465.137.027.027.722 2.086 2.094 6.183l2.113 6.258c.09.168.211.274.367.313s.484.07.988.097h.582v.891h-.175c-.118-.039-.938-.059-2.461-.059-1.59 0-2.52.02-2.789.059h-.196v-.891h.254c.902 0 1.356-.117 1.356-.351 0-.024-.157-.504-.465-1.434l-.465-1.375h-4.516l-.39 1.145c-.258.761-.387 1.179-.387 1.257 0 .168.129.336.387.504.261.168.582.254.968.254h.098v.891zm3.719-4.942-1.977-5.855-1.957 5.836c0 .012.653.019 1.957.019z" transform="scale(1.3333333)"/>
  <path id="path15" d="m113.191 282.766c0-.239.125-.422.383-.547h17.461c.274.144.414.328.414.547 0 .199-.129.375-.387.519l-8.714.027h-8.719c-.293-.089-.438-.273-.438-.546zm0 5.316c0-.273.145-.457.438-.547h17.433c.258.184.387.367.387.547 0 .238-.14.422-.414.551h-17.461c-.258-.129-.383-.313-.383-.551z" transform="scale(1.3333333)"/>
  <path id="path16" d="m141.914 292.25c-.312 0-.465-.09-.465-.273 0-.036.028-.165.082-.383.071-.293.145-.457.219-.496.074-.036.281-.063.629-.082.496 0 1.043-.028 1.644-.082.258-.055.43-.164.524-.329.035-.089.683-2.66 1.945-7.703s1.903-7.601 1.918-7.675c0-.129-.035-.192-.109-.192-.145-.055-.629-.101-1.453-.137h-.848c-.109-.109-.164-.183-.164-.218 0-.039.016-.196.055-.469.07-.309.164-.5.273-.574h14.777c.125.074.192.172.192.301 0 .089-.121 1.113-.36 3.07-.234 1.957-.363 2.961-.382 3.015-.036.129-.219.192-.547.192h-.328c-.129-.09-.196-.211-.196-.356 0-.019.028-.238.086-.656.055-.422.082-.906.082-1.453 0-.551-.066-.996-.195-1.344-.125-.347-.301-.633-.52-.851-.218-.219-.558-.364-1.015-.438s-.922-.137-1.395-.191c-.476-.055-1.136-.067-1.976-.028h-.629c-1.5.016-2.293.043-2.387.082-.09.036-.156.11-.191.219-.02.02-.328 1.215-.934 3.59l-.875 3.539h1.508.629c.367 0 .621-.012.769-.027.145-.02.348-.047.602-.082.258-.039.476-.102.66-.196.18-.089.336-.199.465-.328.238-.218.437-.519.601-.902.165-.387.286-.734.36-1.043.07-.312.117-.477.137-.492.054-.094.226-.137.519-.137h.328c.129.09.192.18.192.274 0 .054-.282 1.25-.848 3.589-.566 2.34-.879 3.547-.934 3.618-.035.128-.218.195-.547.195h-.328c-.129-.113-.195-.223-.195-.332 0-.055.047-.254.141-.602.09-.347.136-.715.136-1.097 0-.528-.183-.86-.55-.985-.364-.129-1.176-.195-2.438-.195h-1.508l-.879 3.484c-.586 2.266-.875 3.453-.875 3.563 0 .258.813.383 2.438.383h.687c.11.109.164.175.164.191 0 .02-.019.203-.054.551-.074.238-.164.41-.274.519h-.468c-.75-.035-2.129-.054-4.141-.054-1.188 0-2.09 0-2.711 0s-.969.007-1.043.027z" transform="scale(1.3333333)"/>
  <path id="path17" d="m160.215 289.762c0-1.114.215-2.133.64-3.063.426-.929.977-1.672 1.649-2.23.672-.555 1.375-.981 2.113-1.278.735-.296 1.434-.453 2.09-.464h.176c.078 0 .129.003.156.019 1.176 0 2.215.438 3.121 1.316l.25.235.582-.758c.348-.477.551-.742.602-.793h.078c.039 0 .074-.008.113-.019h.078c.039 0 .098.039.176.117v5.426l-.117.117h-.66c-.074-.078-.121-.188-.133-.332-.117-1.059-.426-1.977-.934-2.75-.504-.778-1.117-1.285-1.84-1.532-.246-.089-.566-.136-.968-.136-.325 0-.645.027-.969.078s-.711.187-1.164.406-.852.484-1.199.797c-.352.309-.668.781-.953 1.414-.282.633-.465 1.328-.54 2.094-.054.543-.078 1.031-.078 1.472 0 .981.121 1.848.368 2.598.246.746.543 1.328.89 1.742.352.414.762.758 1.242 1.028.477.273.918.445 1.317.523.402.078.797.121 1.183.137.606 0 1.137-.137 1.59-.406.449-.274.75-.629.891-1.067.039-.129.058-.519.058-1.164v-1.008c-.011-.011-.046-.039-.097-.078s-.09-.062-.117-.078c-.024-.012-.082-.031-.172-.059-.094-.023-.196-.039-.313-.039s-.269-.004-.465-.015c-.191-.016-.445-.02-.754-.02h-.503v-.894h.23l3.102.058c1.371 0 2.132-.019 2.289-.058h.152v.894h-.27c-.609 0-.949.074-1.027.231-.027.05-.039.742-.039 2.074v1.976c-.078.079-.137.118-.176.118-.051 0-.168-.067-.347-.196-.286-.191-.536-.398-.758-.621l-.25-.23c-.207.347-.613.679-1.223.988-.605.309-1.367.473-2.285.484-1.152 0-2.234-.285-3.258-.851-1.019-.57-1.859-1.403-2.519-2.5-.657-1.102-.993-2.332-1.008-3.703z" transform="scale(1.3333333)"/>
  <path id="path18" d="m304.574 82.18v161.234c0 10.578 8.52 19.09 19.106 19.09h136.465c10.585 0 19.105-8.512 19.105-19.09v-161.234z" fill="#99c1f1" transform="scale(1.3333333)"/>
  <path id="path19" d="m304.574 61.085v182.478c0 10.585 8.52 19.11 19.106 19.11h136.465c10.585 0 19.105-8.525 19.105-19.11v-182.478z" fill="none" stroke="#000" stroke-linecap="round" stroke-linejoin="round" stroke-width="2.127" transform="scale(1.3333333 1.3324947)"/>
  <path id="path20" d="m314.293 61.047v182.363c0 10.578 8.523 19.098 19.109 19.098h13.973c-7.27-4.215-10.059-8.52-10.059-19.098v-182.363z" fill="#0ff" fill-opacity=".133" transform="scale(1.3333333)"/>
  <path id="path21" d="m371.887 31.129c0-2.438.351-4.789 1.051-7.047.718-2.281 1.839-4.332 3.359-6.152h2.488c-1.398 1.882-2.457 3.949-3.18 6.211-.699 2.261-1.05 4.578-1.05 6.961 0 2.32.351 4.597 1.05 6.839.723 2.219 1.77 4.27 3.153 6.149h-2.461c-1.52-1.758-2.641-3.75-3.359-5.969-.7-2.242-1.051-4.57-1.051-6.992zm12.988-14.578v5.551c0 .679-.02 1.32-.059 1.918-.019.582-.05 1.039-.089 1.382h.148c.461-.683 1.09-1.25 1.891-1.711.8-.461 1.832-.691 3.089-.691 2 0 3.602.699 4.801 2.102 1.219 1.378 1.828 3.449 1.828 6.207 0 2.761-.609 4.843-1.828 6.242-1.218 1.398-2.82 2.101-4.801 2.101-1.257 0-2.289-.23-3.089-.691-.801-.461-1.43-1.012-1.891-1.652h-.207l-.543 2.043h-1.891v-22.801zm4.531 8.64c-1.718 0-2.91.489-3.57 1.469-.641.981-.961 2.5-.961 4.559v.121c0 1.98.32 3.5.961 4.562.66 1.039 1.871 1.559 3.629 1.559 1.441 0 2.512-.531 3.211-1.59.722-1.062 1.082-2.59 1.082-4.59 0-4.062-1.453-6.09-4.352-6.09zm16.532 5.938c0 2.422-.36 4.75-1.083 6.992-.699 2.219-1.808 4.211-3.328 5.969h-2.461c1.379-1.879 2.422-3.93 3.122-6.149.718-2.242 1.078-4.519 1.078-6.839 0-2.383-.36-4.7-1.078-6.961-.7-2.262-1.75-4.329-3.153-6.211h2.492c1.52 1.82 2.629 3.871 3.328 6.152.723 2.258 1.083 4.609 1.083 7.047z" transform="scale(1.3333333)"/>
  <path id="path22" d="m347.074 120.715h89.676v89.676h-89.676z" fill="#99c1f1" fill-rule="evenodd" stroke="#000" stroke-dasharray="2.83,2.83" stroke-linecap="round" stroke-linejoin="round" stroke-width="1.417" transform="scale(1.3333333)"/>
  <path id="path23" d="m394.586 165.555c0 1.472-1.199 2.672-2.676 2.672-1.472 0-2.672-1.2-2.672-2.672 0-1.477 1.2-2.676 2.672-2.676 1.477 0 2.676 1.199 2.676 2.676z" fill="#f2f2f2" stroke="#000" stroke-width=".222" transform="scale(1.3333333)"/>
  <path id="path24" d="m347.074 120.715h89.676v89.676h-89.676z" fill="#deddda" fill-rule="evenodd" stroke="#000" stroke-linecap="round" stroke-linejoin="round" stroke-width="1.417" transform="scale(1.3333333)"/>
  <path id="path25" d="m391.984 163.676v-54.653" fill="none" stroke="#00f" stroke-linecap="round" stroke-linejoin="round" stroke-miterlimit="10" stroke-width="3.117" transform="scale(1.3333333)"/>
  <path id="path26" d="m391.984 95.805 4.231 16.922h-8.461z" fill="#00f" transform="scale(1.3333333)"/>
  <path id="path27" d="m391.984-166.855v-69.653" fill="none" stroke="#ed333b" stroke-linecap="round" stroke-linejoin="round" stroke-miterlimit="10" stroke-width="3.117" transform="scale(1.3333333 -1.3333333)"/>
  <path id="path28" d="m391.984 249.727 4.231-16.922h-8.461z" fill="#ed333b" transform="scale(1.3333333)"/>
  <path id="path29" d="m121.984 95.805h270" fill="none" stroke="#00f" stroke-dasharray="1.42,4.25" stroke-linecap="round" stroke-linejoin="round" stroke-width="1.417" transform="scale(1.3333333)"/>
  <path id="path30" d="m121.984 165.555h270" fill="none" stroke="#00f" stroke-dasharray="1.42,4.25" stroke-linecap="round" stroke-linejoin="round" stroke-width="1.417" transform="scale(1.3333333)"/>
  <path id="path31" d="m124.586 165.555c0 1.472-1.199 2.672-2.676 2.672-1.472 0-2.672-1.2-2.672-2.672 0-1.477 1.2-2.676 2.672-2.676 1.477 0 2.676 1.199 2.676 2.676z" fill="#fff" stroke="#000" stroke-linecap="round" stroke-linejoin="round" stroke-width="1.417" transform="scale(1.3333333)"/>
  <path id="path32" d="m394.586 165.555c0 1.472-1.199 2.672-2.676 2.672-1.472 0-2.672-1.2-2.672-2.672 0-1.477 1.2-2.676 2.672-2.676 1.477 0 2.676 1.199 2.676 2.676z" fill="#fff" stroke="#000" stroke-linecap="round" stroke-linejoin="round" stroke-width="1.417" transform="scale(1.3333333)"/>
  <path id="path33" d="m403.262 112.727c-.246 0-.367-.075-.367-.219 0-.028.023-.129.066-.305.055-.23.113-.359.172-.391.058-.027.226-.05.5-.062.39 0 .824-.023 1.301-.066.203-.043.343-.129.414-.262.027-.07.543-2.106 1.543-6.102.996-3.992 1.504-6.019 1.519-6.078 0-.101-.031-.152-.086-.152-.117-.043-.5-.078-1.152-.11h-.672c-.09-.085-.133-.144-.133-.171 0-.032.016-.153.043-.371.059-.247.133-.399.219-.454h11.703c.102.055.152.137.152.239 0 .07-.093.882-.281 2.429-.191 1.551-.293 2.348-.305 2.391-.031.102-.175.152-.433.152h-.262c-.101-.074-.152-.168-.152-.285 0-.012.023-.187.066-.519s.063-.715.063-1.153c0-.433-.051-.789-.153-1.062-.097-.274-.238-.5-.41-.672-.176-.176-.441-.289-.805-.348-.359-.058-.73-.109-1.105-.152-.379-.043-.898-.051-1.562-.024h-.5c-1.188.016-1.817.04-1.891.067-.07.027-.121.086-.152.172-.016.015-.262.965-.739 2.847l-.695 2.801h1.195.5c.289 0 .492-.008.61-.023.113-.016.273-.035.476-.067.203-.027.375-.078.52-.148.144-.074.269-.16.371-.262.187-.176.348-.414.476-.719.129-.3.223-.578.282-.824.058-.246.093-.375.109-.39.043-.071.18-.11.414-.11h.258c.101.074.152.145.152.219 0 .043-.222.992-.672 2.844-.449 1.851-.695 2.808-.738 2.867-.027.101-.176.152-.433.152h-.262c-.102-.09-.153-.176-.153-.261 0-.043.036-.204.11-.477.07-.277.109-.566.109-.871 0-.418-.144-.68-.433-.781-.293-.102-.934-.153-1.934-.153h-1.195l-.696 2.758c-.461 1.797-.695 2.738-.695 2.824 0 .203.645.305 1.934.305h.543c.086.086.129.137.129.152 0 .012-.012.157-.043.434-.055.187-.129.324-.215.41h-.371c-.594-.027-1.684-.043-3.278-.043-.941 0-1.656 0-2.148 0s-.77.008-.828.024z" fill="#00f" transform="scale(1.3333333)"/>
  <path id="path34" d="m420.812 116.062c-.152-.031-.742-.046-1.765-.046-.942 0-1.457.015-1.551.046h-.105v-.707h.23c.734-.031 1.207-.246 1.41-.644.012-.031.281-.832.817-2.41.531-1.574 1.058-3.153 1.578-4.727.523-1.578.793-2.371.816-2.379.028-.082.121-.125.274-.125h.156c.203.012.328.047.367.11.02.019.574 1.652 1.656 4.894l1.676 4.961c.07.133.168.215.289.246.125.028.387.055.785.074h.461v.707h-.14c-.09-.031-.743-.046-1.95-.046-1.257 0-1.996.015-2.211.046h-.152v-.707h.199c.719 0 1.075-.089 1.075-.273 0-.023-.122-.402-.368-1.137l-.367-1.09h-3.578l-.309.907c-.203.601-.304.933-.304.996 0 .133.101.265.304.398.207.133.461.199.77.199h.078v.707zm2.95-3.914-1.567-4.636-1.55 4.621c0 .012.515.015 1.55.015z" fill="#00f" transform="scale(1.3333333)"/>
  <path id="path35" d="m358.262 252.484c-.246 0-.367-.07-.367-.214 0-.032.023-.133.066-.305.055-.231.113-.363.172-.391.058-.027.226-.051.5-.066.39 0 .824-.02 1.301-.063.203-.047.343-.133.414-.261.027-.075.543-2.106 1.543-6.102.996-3.996 1.504-6.02 1.519-6.078 0-.102-.031-.152-.086-.152-.117-.043-.5-.082-1.152-.11h-.672c-.09-.086-.133-.144-.133-.172 0-.031.016-.152.043-.371.059-.246.133-.398.219-.457h11.703c.102.059.152.141.152.238 0 .075-.093.887-.281 2.434-.191 1.547-.293 2.344-.305 2.387-.031.101-.175.152-.433.152h-.262c-.101-.07-.152-.164-.152-.281 0-.016.023-.188.066-.52.043-.336.063-.718.063-1.152s-.051-.789-.153-1.062c-.097-.278-.238-.5-.41-.676-.176-.172-.441-.289-.805-.348-.359-.055-.73-.105-1.105-.148-.379-.047-.898-.051-1.562-.024h-.5c-1.188.016-1.817.035-1.891.067-.07.027-.121.086-.152.171-.016.016-.262.965-.739 2.844l-.695 2.801h1.195.5c.289 0 .492-.008.61-.02.113-.015.273-.039.476-.066s.375-.078.52-.152c.144-.071.269-.16.371-.262.187-.172.348-.41.476-.715.129-.305.223-.578.282-.824.058-.246.093-.379.109-.391.043-.074.18-.109.414-.109h.258c.101.074.152.144.152.219 0 .043-.222.988-.672 2.843-.449 1.852-.695 2.809-.738 2.864-.027.101-.176.152-.433.152h-.262c-.102-.086-.153-.172-.153-.258 0-.047.036-.203.11-.48.07-.274.109-.563.109-.867 0-.418-.144-.68-.433-.782-.293-.101-.934-.152-1.934-.152h-1.195l-.696 2.758c-.461 1.793-.695 2.734-.695 2.82 0 .203.645.305 1.934.305h.543c.086.09.129.137.129.152 0 .016-.012.16-.043.434-.055.191-.129.328-.215.414h-.371c-.594-.028-1.684-.043-3.278-.043-.941 0-1.656 0-2.148 0s-.77.008-.828.019z" fill="#ed333b" transform="scale(1.3333333)"/>
  <path id="path36" d="m372.758 250.516c0-.883.168-1.692.508-2.426.336-.738.773-1.324 1.304-1.766.532-.441 1.09-.777 1.672-1.012.586-.238 1.137-.359 1.66-.371h.137c.063 0 .102.008.121.016.934 0 1.758.348 2.473 1.043l.199.188.461-.602c.277-.379.434-.586.477-.629h.062c.027 0 .059-.004.09-.016h.062c.032 0 .078.032.137.094v4.297l-.09.094h-.523c-.063-.063-.098-.149-.106-.262-.093-.84-.34-1.566-.738-2.18-.398-.613-.887-1.019-1.457-1.214-.195-.071-.453-.106-.769-.106-.254 0-.512.02-.766.063-.258.039-.563.148-.922.32-.359.176-.676.383-.953.629-.274.246-.527.621-.75 1.121-.227.504-.371 1.055-.43 1.66-.043.43-.062.816-.062 1.164 0 .777.097 1.465.293 2.059.191.593.429 1.054.703 1.382.277.325.605.598.984.813s.727.352 1.043.414c.317.063.629.098.938.106.48 0 .898-.106 1.257-.321.36-.215.594-.496.707-.844.032-.101.047-.41.047-.921v-.797c-.011-.012-.039-.032-.078-.063-.043-.031-.07-.051-.094-.062-.019-.008-.066-.024-.136-.047-.071-.02-.153-.028-.246-.028-.09 0-.215-.007-.368-.015-.152-.012-.355-.016-.597-.016h-.403v-.707h.188l2.453.047c1.086 0 1.692-.016 1.813-.047h.121v.707h-.215c-.481 0-.75.059-.813.184-.019.039-.031.586-.031 1.64v1.567c-.059.062-.105.094-.137.094-.043 0-.132-.051-.277-.157-.223-.152-.426-.316-.598-.488l-.199-.183c-.164.273-.488.535-.969.781-.48.246-1.082.375-1.808.383-.914 0-1.774-.223-2.582-.676-.809-.449-1.473-1.11-1.996-1.981-.52-.867-.785-1.847-.797-2.929z" fill="#ed333b" transform="scale(1.3333333)"/>
  <path id="path37" d="m89.762 112.727c-.246 0-.367-.075-.367-.219 0-.028.023-.129.066-.305.055-.23.113-.359.172-.391.058-.027.226-.05.5-.062.39 0 .824-.023 1.301-.066.203-.043.343-.129.414-.262.027-.07.543-2.106 1.543-6.102.996-3.992 1.504-6.019 1.519-6.078 0-.101-.031-.152-.086-.152-.117-.043-.5-.078-1.152-.11h-.672c-.09-.085-.133-.144-.133-.171 0-.032.016-.153.043-.371.059-.247.133-.399.219-.454h11.703c.102.055.152.137.152.239 0 .07-.093.882-.281 2.429-.191 1.551-.293 2.348-.305 2.391-.031.102-.175.152-.433.152h-.262c-.101-.074-.152-.168-.152-.285 0-.012.023-.187.066-.519s.063-.715.063-1.153c0-.433-.051-.789-.153-1.062-.101-.274-.238-.5-.41-.672-.176-.176-.441-.289-.805-.348-.359-.058-.73-.109-1.105-.152-.379-.043-.898-.051-1.566-.024h-.496c-1.188.016-1.817.04-1.891.067-.07.027-.121.086-.152.172-.016.015-.262.965-.739 2.847l-.695 2.801h1.195.5c.289 0 .492-.008.61-.023.113-.016.273-.035.476-.067.203-.027.375-.078.52-.148.144-.074.269-.16.371-.262.187-.176.348-.414.476-.719.129-.3.223-.578.282-.824.058-.246.093-.375.109-.39.043-.071.18-.11.414-.11h.258c.101.074.152.145.152.219 0 .043-.222.992-.672 2.844-.449 1.851-.695 2.808-.738 2.867-.027.101-.176.152-.433.152h-.262c-.102-.09-.153-.176-.153-.261 0-.043.036-.204.11-.477.07-.277.109-.566.109-.871 0-.418-.144-.68-.433-.781-.293-.102-.934-.153-1.934-.153h-1.195l-.696 2.758c-.461 1.797-.695 2.738-.695 2.824 0 .203.645.305 1.934.305h.543c.086.086.129.137.129.152 0 .012-.012.157-.043.434-.055.187-.129.324-.215.41h-.371c-.594-.027-1.684-.043-3.278-.043-.941 0-1.656 0-2.148 0s-.77.008-.828.024z" fill="#00f" transform="scale(1.3333333)"/>
  <path id="path38" d="m107.312 116.062c-.152-.031-.742-.046-1.765-.046-.942 0-1.457.015-1.551.046h-.105v-.707h.23c.734-.031 1.207-.246 1.41-.644.012-.031.281-.832.817-2.41.531-1.574 1.058-3.153 1.578-4.727.523-1.578.793-2.371.816-2.379.028-.082.121-.125.274-.125h.156c.203.012.324.047.367.11.02.019.574 1.652 1.656 4.894l1.676 4.961c.07.133.168.215.289.246.125.028.387.055.785.074h.461v.707h-.14c-.09-.031-.743-.046-1.95-.046-1.257 0-1.996.015-2.211.046h-.152v-.707h.199c.719 0 1.075-.089 1.075-.273 0-.023-.122-.402-.368-1.137l-.367-1.09h-3.578l-.309.907c-.203.601-.304.933-.304.996 0 .133.101.265.304.398.207.133.461.199.77.199h.078v.707zm2.95-3.914-1.567-4.636-1.55 4.621c0 .012.515.015 1.55.015z" fill="#00f" transform="scale(1.3333333)"/>
  <path id="path39" d="m89.762 237.484c-.246 0-.367-.07-.367-.214 0-.032.023-.133.066-.305.055-.231.113-.363.172-.391.058-.027.226-.051.5-.066.39 0 .824-.02 1.301-.063.203-.047.343-.133.414-.261.027-.075.543-2.106 1.543-6.102.996-3.996 1.504-6.02 1.519-6.078 0-.102-.031-.152-.086-.152-.117-.043-.5-.082-1.152-.11h-.672c-.09-.086-.133-.144-.133-.172 0-.031.016-.152.043-.371.059-.246.133-.398.219-.457h11.703c.102.059.152.141.152.238 0 .075-.093.887-.281 2.434-.191 1.547-.293 2.344-.305 2.387-.031.101-.175.152-.433.152h-.262c-.101-.07-.152-.164-.152-.281 0-.016.023-.188.066-.52.043-.336.063-.718.063-1.152s-.051-.789-.153-1.062c-.101-.278-.238-.5-.41-.676-.176-.172-.441-.289-.805-.348-.359-.055-.73-.105-1.105-.148-.379-.047-.898-.051-1.566-.024h-.496c-1.188.016-1.817.035-1.891.067-.07.027-.121.086-.152.171-.016.016-.262.965-.739 2.844l-.695 2.801h1.195.5c.289 0 .492-.008.61-.02.113-.015.273-.039.476-.066s.375-.078.52-.152c.144-.071.269-.16.371-.262.187-.172.348-.41.476-.715.129-.305.223-.578.282-.824.058-.246.093-.379.109-.391.043-.074.18-.109.414-.109h.258c.101.074.152.144.152.219 0 .043-.222.988-.672 2.843-.449 1.852-.695 2.809-.738 2.864-.027.101-.176.152-.433.152h-.262c-.102-.086-.153-.172-.153-.258 0-.047.036-.203.11-.48.07-.274.109-.563.109-.867 0-.418-.144-.68-.433-.782-.293-.101-.934-.152-1.934-.152h-1.195l-.696 2.758c-.461 1.793-.695 2.734-.695 2.82 0 .203.645.305 1.934.305h.543c.086.09.129.137.129.152 0 .016-.012.16-.043.434-.055.191-.129.328-.215.414h-.371c-.594-.028-1.684-.043-3.278-.043-.941 0-1.656 0-2.148 0s-.77.008-.828.019z" fill="#ed333b" transform="scale(1.3333333)"/>
  <path id="path40" d="m104.258 235.516c0-.883.168-1.692.508-2.426.336-.738.773-1.324 1.304-1.766.532-.441 1.09-.777 1.672-1.012.586-.238 1.137-.359 1.66-.371h.137c.063 0 .102.008.121.016.934 0 1.758.348 2.473 1.043l.199.188.461-.602c.277-.379.434-.586.477-.629h.062c.027 0 .059-.004.09-.016h.062c.032 0 .078.032.137.094v4.297l-.09.094h-.523c-.063-.063-.098-.149-.106-.262-.093-.84-.34-1.566-.738-2.18-.398-.613-.887-1.019-1.457-1.214-.195-.071-.453-.106-.769-.106-.254 0-.512.02-.766.063-.258.039-.563.148-.922.32-.359.176-.676.383-.953.629s-.527.621-.75 1.121c-.227.504-.371 1.055-.43 1.66-.043.43-.062.816-.062 1.164 0 .777.097 1.465.293 2.059.191.593.429 1.054.703 1.382.277.325.605.598.984.813s.727.352 1.043.414c.317.063.629.098.938.106.48 0 .898-.106 1.257-.321.36-.215.594-.496.707-.844.032-.101.047-.41.047-.921v-.797c-.011-.012-.039-.032-.078-.063-.043-.031-.07-.051-.094-.062-.019-.008-.066-.024-.136-.047-.071-.02-.153-.028-.246-.028-.09 0-.215-.007-.368-.015-.152-.012-.355-.016-.597-.016h-.403v-.707h.188l2.453.047c1.086 0 1.692-.016 1.813-.047h.121v.707h-.215c-.481 0-.75.059-.813.184-.019.039-.031.586-.031 1.64v1.567c-.059.062-.105.094-.137.094-.043 0-.132-.051-.277-.157-.223-.152-.426-.316-.598-.488l-.199-.183c-.164.273-.488.535-.969.781-.48.246-1.082.375-1.808.383-.914 0-1.774-.223-2.582-.676-.809-.449-1.473-1.11-1.996-1.981-.52-.867-.785-1.847-.797-2.929z" fill="#ed333b" transform="scale(1.3333333)"/>
 </g>
</svg>
