<svg viewBox="0 0 400 250" width="100%" style="max-width:420px" xmlns="http://www.w3.org/2000/svg" role="img" aria-label="Wykres v(t): prędkość rośnie liniowo od 0 do 8 m/s w czasie 0-4 s, jest stała 8 m/s od 4 do 10 s, a potem maleje liniowo do 0 między 10 a 12 s">
  <line x1="50" y1="210" x2="365" y2="210" stroke="black" stroke-width="2"/>
  <polygon points="365,210 355,206 355,214" fill="black"/>
  <line x1="50" y1="210" x2="50" y2="45" stroke="black" stroke-width="2"/>
  <polygon points="50,45 46,55 54,55" fill="black"/>
  <text x="22" y="35" font-size="14">v [m/s]</text>
  <text x="380" y="215" font-size="14">t [s]</text>
  <polyline points="50,210 150,60 300,60 350,210" fill="none" stroke="#2980b9" stroke-width="3"/>
  <line x1="150" y1="210" x2="150" y2="216" stroke="black" stroke-width="1.5"/>
  <line x1="200" y1="210" x2="200" y2="216" stroke="black" stroke-width="1.5"/>
  <line x1="250" y1="210" x2="250" y2="216" stroke="black" stroke-width="1.5"/>
  <line x1="300" y1="210" x2="300" y2="216" stroke="black" stroke-width="1.5"/>
  <line x1="350" y1="210" x2="350" y2="216" stroke="black" stroke-width="1.5"/>
  <text x="146" y="228" font-size="13">4</text>
  <text x="196" y="228" font-size="13">6</text>
  <text x="246" y="228" font-size="13">8</text>
  <text x="292" y="228" font-size="13">10</text>
  <text x="342" y="228" font-size="13">12</text>
  <line x1="44" y1="60" x2="50" y2="60" stroke="black" stroke-width="1.5"/>
  <text x="26" y="65" font-size="13">8</text>
</svg>
