<svg viewBox="0 0 400 250" width="100%" style="max-width:420px" xmlns="http://www.w3.org/2000/svg" role="img" aria-label="Wykres s(t): droga rośnie liniowo od 0 do 20 m w czasie 0-2 s, potem pozostaje stała na poziomie 20 m do 6 s">
  <rect x="0" y="0" width="400" height="250" fill="#ffffff"/>
  <line x1="50" y1="210" x2="365" y2="210" stroke="black" stroke-width="2"/>
  <polygon points="365,210 355,206 355,214" fill="black"/>
  <line x1="50" y1="210" x2="50" y2="45" stroke="black" stroke-width="2"/>
  <polygon points="50,45 46,55 54,55" fill="black"/>
  <text x="30" y="35" font-size="14">s [m]</text>
  <text x="380" y="215" font-size="14">t [s]</text>
  <polyline points="50,210 150,60 350,60" fill="none" stroke="#c0392b" stroke-width="3"/>
  <line x1="150" y1="210" x2="150" y2="216" stroke="black" stroke-width="1.5"/>
  <line x1="200" y1="210" x2="200" y2="216" stroke="black" stroke-width="1.5"/>
  <line x1="250" y1="210" x2="250" y2="216" stroke="black" stroke-width="1.5"/>
  <line x1="300" y1="210" x2="300" y2="216" stroke="black" stroke-width="1.5"/>
  <line x1="350" y1="210" x2="350" y2="216" stroke="black" stroke-width="1.5"/>
  <text x="46" y="228" font-size="13">0</text>
  <text x="146" y="228" font-size="13">2</text>
  <text x="196" y="228" font-size="13">3</text>
  <text x="246" y="228" font-size="13">4</text>
  <text x="296" y="228" font-size="13">5</text>
  <text x="346" y="228" font-size="13">6</text>
  <line x1="44" y1="60" x2="50" y2="60" stroke="black" stroke-width="1.5"/>
  <text x="18" y="65" font-size="13">20</text>
</svg>
