<svg viewBox="0 0 380 260" width="100%" style="max-width:480px" xmlns="http://www.w3.org/2000/svg" role="img" aria-label="Ciało spadające swobodnie z punktu A do C — w każdym punkcie suma energii potencjalnej i kinetycznej jest taka sama, zmienia się tylko ich proporcja">
  <rect x="0" y="0" width="380" height="260" fill="white" stroke="#dcdcdc"/>
  <!-- tor spadania -->
  <circle cx="60" cy="35" r="10" fill="#f08c00"/>
  <circle cx="60" cy="120" r="10" fill="#f08c00"/>
  <circle cx="60" cy="205" r="10" fill="#f08c00"/>
  <line x1="60" y1="45" x2="60" y2="110" stroke="#adb5bd" stroke-width="1.5" stroke-dasharray="4,3"/>
  <line x1="60" y1="130" x2="60" y2="195" stroke="#adb5bd" stroke-width="1.5" stroke-dasharray="4,3"/>
  <line x1="20" y1="215" x2="340" y2="215" stroke="#495057" stroke-width="2"/>
  <text x="30" y="35" font-size="12" text-anchor="end" fill="#333">A</text>
  <text x="30" y="120" font-size="12" text-anchor="end" fill="#333">B</text>
  <text x="30" y="205" font-size="12" text-anchor="end" fill="#333">C</text>
  <!-- słupki energii dla A -->
  <rect x="150" y="15" width="24" height="40" fill="#4dabf7"/>
  <rect x="150" y="15" width="24" height="0" fill="#fa5252"/>
  <text x="162" y="65" font-size="10" text-anchor="middle" fill="#333">Ep=100%</text>
  <text x="162" y="77" font-size="10" text-anchor="middle" fill="#333">Ek=0%</text>
  <!-- słupki energii dla B -->
  <rect x="230" y="15" width="24" height="20" fill="#4dabf7"/>
  <rect x="230" y="35" width="24" height="20" fill="#fa5252"/>
  <text x="242" y="65" font-size="10" text-anchor="middle" fill="#333">Ep=50%</text>
  <text x="242" y="77" font-size="10" text-anchor="middle" fill="#333">Ek=50%</text>
  <!-- słupki energii dla C -->
  <rect x="310" y="55" width="24" height="0" fill="#4dabf7"/>
  <rect x="310" y="15" width="24" height="40" fill="#fa5252"/>
  <text x="322" y="65" font-size="10" text-anchor="middle" fill="#333">Ep=0%</text>
  <text x="322" y="77" font-size="10" text-anchor="middle" fill="#333">Ek=100%</text>
  <line x1="150" y1="55" x2="174" y2="55" stroke="none"/>
  <text x="60" y="240" font-size="12" fill="#333" text-anchor="middle">spadające ciało</text>
  <text x="242" y="240" font-size="12" fill="#333" text-anchor="middle">energia w punktach A, B, C (Ec = Ek + Ep = const)</text>
  <rect x="150" y="112" width="12" height="12" fill="#4dabf7"/>
  <text x="168" y="122" font-size="11" fill="#333">Ep (potencjalna)</text>
  <rect x="150" y="130" width="12" height="12" fill="#fa5252"/>
  <text x="168" y="140" font-size="11" fill="#333">Ek (kinetyczna)</text>
</svg>
