<?xml version="1.0" encoding="utf-8"?>
<!DOCTYPE svg PUBLIC "-//W3C//DTD SVG 1.1//EN" "http://www.w3.org/Graphics/SVG/1.1/DTD/svg11.dtd">
<svg xmlns="http://www.w3.org/2000/svg" xmlns:xlink="http://www.w3.org/1999/xlink" width="100%" height="100%" viewBox="-67 -208 440 352">
  <rect x="-67" y="-208" width="440" height="352" fill="#ffffff"/>
 <title>water temperature vs heat added</title>
 <desc>Graph of temperature of water continuously heated from &#8722;100&#8201;&#176;C by CMG Lee. The dashed line example shows that 600 kJ can heat and melt 1&#8201;kg of ice at &#8722;50&#8202;&#176;C to 40&#8202;&#176;C. Values are from http://en.wikipedia.org/wiki/Table_of_specific_heat_capacities and http://en.wikipedia.org/wiki/Latent_heat .</desc>
 <style type="text/css">
.main { font-family:Helvetica,Arial,sans-serif; font-size:18px; text-anchor:middle;
        fill:#000000; stroke:none; stroke-linejoin:round; }
text  { stroke:none; cursor:default; }
.name { font-weight:bold; font-style:normal; }
.pack { letter-spacing:-0.02ex; }
 </style>
 <filter id="filter_outline">
  <feMorphology in="SourceAlpha" operator="dilate" radius="1" result="dilate"/>
  <feColorMatrix in="dilate" type="matrix" values="0,0,0,0,1 0,0,0,0,1 0,0,0,0,1 0,0,0,1,0" result="white"/>
  <feBlend in="SourceGraphic" in2="white"/>
 </filter>
 <linearGradient id="grad_graph" x1="0%" y1="0%" x2="100%" y2="0%">
  <stop offset="20.2%"  stop-color="#3333ff"/>
  <stop offset="25.7%"  stop-color="#00cc99"/>
  <stop offset="32.8%"  stop-color="#00cc99"/>
  <stop offset="70.0%"  stop-color="#ff6600"/>
 </linearGradient>
 <pattern id="pattern_grid_1" patternUnits="userSpaceOnUse" width="10" height="10">
  <rect x="0" y="0" width="9999" height="9999" stroke="#dddddd" fill="none"/>
 </pattern>
 <pattern id="pattern_grid_5" patternUnits="userSpaceOnUse" width="50" height="50">
  <rect x="0" y="0" width="9999" height="9999" stroke="#bbbbbb" fill="url(#pattern_grid_1)"/>
 </pattern>
 <marker id="marker_end" markerWidth="8" markerHeight="8" refX="4" refY="4" markerUnits="userSpaceOnUse" orient="auto">
  <path d="M 0,0 Q 4,4 8,4 Q 4,4 0,8 Q 3,4 0,0" fill="#ffffff"/>
 </marker>
 <mask id="mask_graph" fill="none" stroke="#ffffff" stroke-width="4">
  <path d="M 0,100 l 20.5,-100 h 33.4 l 41.8,-100 h 226.5 l 20.8,-100"/>
  <path d="M 322,-100 l 15.6,-100" stroke-dasharray="2,2"/>
  <g stroke="#ffffff" stroke-width="2" marker-end="url(#marker_end)">
   <path d="M 23,  5 H  50"/>
   <path d="M 97,-95 H 320"/>
  </g>
 </mask>
 <circle cx="0" cy="0" r="99999" fill="#ffffff"/>
 <g class="main">
  <rect x="0" y="-200" width="350" height="300" fill="url(#pattern_grid_5)" stroke="#cccccc"/>
  <g text-anchor="start" filter="url(#filter_outline)">
   <circle cx="200" cy="0" r="300" fill="url(#grad_graph)" mask="url(#mask_graph)"/>
   <text transform="translate(15,  60)" x="0" y="0.7ex"><tspan class="name">Ice</tspan><tspan x="0" dy="1em">specific&#8201;heat&#8201;capacity:&#8201;2.1&#8201;kJ/kg/K</tspan></text>
   <text transform="translate(60,   3)" x="0" y="0.7ex"><tspan class="name">Melting ice (ice&#8202;+&#8202;water)</tspan><tspan x="0" dy="1em">latent&#8201;heat&#8201;of&#8201;fusion:&#8201;334&#8201;kJ/kg</tspan></text>
   <text transform="translate(85, -60)" x="0" y="0.7ex"><tspan class="name">Liquid water</tspan><tspan x="0" dy="1em">specific&#8201;heat&#8201;capacity:&#8202;4.2&#8201;kJ/kg/K</tspan></text>
   <text transform="translate(31,-131)" x="0" y="0.7ex"><tspan class="name">Boiling water (water&#8202;+&#8202;steam)</tspan><tspan x="0" dy="1em" class="pack">latent&#8201;heat&#8201;of&#8201;vaporization:&#8201;2265&#8201;kJ/kg</tspan></text>
   <text transform="translate( 2,-191)" x="0" y="0.7ex"><tspan class="name">Steam</tspan><tspan x="0" dy="1em" class="pack">specific&#8201;heat&#8201;capacity:&#8202;2.1&#8202;kJ/kg/K&#8202;(isobaric,</tspan><tspan x="0" dy="1em" class="pack">solid&#8201;line)&#8201;or&#8201;1.6&#8201;kJ/kg/K&#8201;(isochoric,&#8202;dotted)</tspan></text>
   <text transform="translate(43, -90)" x="0" y="0.7ex" text-anchor="middle" fill="#ff0000"><tspan>+600&#8202;kJ/kg</tspan></text>
   <path d="M 10,50 V -80 H 70 V -40" fill="none" stroke="#ff0000" stroke-dasharray="20,3"/>
  </g>
  <text transform="translate(  0,-200)" x="-2.2ex" y="0.7ex"       >200</text>
  <text transform="translate(  0,-150)" x="-2.2ex" y="0.7ex"       >150</text>
  <text transform="translate(  0,-100)" x="-2.2ex" y="0.7ex"       >100</text>
  <text transform="translate(  0, -50)" x="-2.2ex" y="0.7ex"        >50</text>
  <text transform="translate(  0,   0)" x="-2.2ex" y="0.7ex"         >0</text>
  <text transform="translate(  0,  50)" x="-2.2ex" y="0.7ex" >&#8722;50</text>
  <text transform="translate(  0, 100)" x="-2.7ex" y="0.7ex">&#8722;100</text>
  <text transform="translate(  0, 100)" x="0" y="2ex"   >0</text>
  <text transform="translate( 50, 100)" x="0" y="2ex" >500</text>
  <text transform="translate(100, 100)" x="0" y="2ex">1000</text>
  <text transform="translate(150, 100)" x="0" y="2ex">1500</text>
  <text transform="translate(200, 100)" x="0" y="2ex">2000</text>
  <text transform="translate(250, 100)" x="0" y="2ex">2500</text>
  <text transform="translate(300, 100)" x="0" y="2ex">3000</text>
  <text transform="translate(350, 100)" x="0" y="2ex">3500</text>
  <text transform="translate(175, 100)" x="0" y="4ex">Heat added (kJ/kg)</text>
  <text transform="translate(0,-22) rotate(-90)" x="0" y="-5.2ex">Temperature (&#176;C)</text>
 </g>
</svg>
