<svg width="520" height="190" viewBox="0 0 520 190" xmlns="http://www.w3.org/2000/svg" role="img" aria-label="Oś liczbowa z zaznaczonym przedziałem niepewności pomiaru długości ołówka">
  <defs>
    <marker id="dwStart" viewBox="0 0 10 10" refX="1" refY="5" markerWidth="6" markerHeight="6" orient="auto-start-reverse">
      <path d="M 9 0 L 1 5 L 9 10" fill="none" stroke="#c0392b" stroke-width="1.5" />
    </marker>
    <marker id="dwEnd" viewBox="0 0 10 10" refX="9" refY="5" markerWidth="6" markerHeight="6" orient="auto">
      <path d="M 9 0 L 1 5 L 9 10" fill="none" stroke="#c0392b" stroke-width="1.5" />
    </marker>
    <marker id="axisArrow" viewBox="0 0 10 10" refX="8" refY="5" markerWidth="6" markerHeight="6" orient="auto">
      <path d="M 0 0 L 10 5 L 0 10 z" fill="#222" />
    </marker>
  </defs>

  <rect x="0" y="0" width="520" height="190" fill="#f6f6f2" stroke="#bbb" />

  <text x="260" y="20" font-size="13" text-anchor="middle" fill="#222">Niepewność pomiaru długości ołówka: l = (143,5 ± 0,2) mm</text>

  <!-- nawiasy podwójne pokazujące Δl = 0,2 mm po obu stronach -->
  <line x1="120" y1="60" x2="280" y2="60" stroke="#c0392b" stroke-width="1.5" marker-start="url(#dwStart)" marker-end="url(#dwEnd)" />
  <line x1="280" y1="60" x2="440" y2="60" stroke="#c0392b" stroke-width="1.5" marker-start="url(#dwStart)" marker-end="url(#dwEnd)" />
  <text x="200" y="48" font-size="12" text-anchor="middle" fill="#c0392b">Δl = 0,2 mm</text>
  <text x="360" y="48" font-size="12" text-anchor="middle" fill="#c0392b">Δl = 0,2 mm</text>

  <!-- łączniki od nawiasów do kresek na osi -->
  <g stroke="#c0392b" stroke-width="1" stroke-dasharray="2,2">
    <line x1="120" y1="60" x2="120" y2="100" />
    <line x1="280" y1="60" x2="280" y2="100" />
    <line x1="440" y1="60" x2="440" y2="100" />
  </g>

  <!-- główna oś liczbowa -->
  <line x1="60" y1="110" x2="480" y2="110" stroke="#222" stroke-width="2" marker-end="url(#axisArrow)" />
  <g stroke="#222" stroke-width="2">
    <line x1="120" y1="100" x2="120" y2="120" />
    <line x1="280" y1="100" x2="280" y2="120" />
    <line x1="440" y1="100" x2="440" y2="120" />
  </g>

  <text x="120" y="138" font-size="12" text-anchor="middle" fill="#222">143,3</text>
  <text x="280" y="138" font-size="12" text-anchor="middle" fill="#222">143,5</text>
  <text x="440" y="138" font-size="12" text-anchor="middle" fill="#222">143,7</text>
  <text x="495" y="114" font-size="12" fill="#222">długość [mm]</text>

  <!-- znacznik odczytanego wyniku -->
  <polygon points="280,150 274,162 286,162" fill="#2471a3" />
  <line x1="280" y1="150" x2="280" y2="120" stroke="#2471a3" stroke-width="1" stroke-dasharray="2,2" />
  <text x="280" y="178" font-size="12" text-anchor="middle" fill="#2471a3">odczytany wynik l</text>
</svg>
